<svg width="32" height="32" viewBox="0 0 32 32" fill="none" xmlns="http://www.w3.org/2000/svg">
<path d="M5.33325 12V25.3333C5.33325 26.0406 5.6142 26.7189 6.1143 27.219C6.6144 27.719 7.29267 28 7.99992 28H23.9999C24.7072 28 25.3854 27.719 25.8855 27.219C26.3856 26.7189 26.6666 26.0406 26.6666 25.3333V12M5.33325 12V9.33333C5.33325 8.62609 5.6142 7.94781 6.1143 7.44772C6.6144 6.94762 7.29267 6.66667 7.99992 6.66667H10.6666M5.33325 12H26.6666M26.6666 12V9.33333C26.6666 8.62609 26.3856 7.94781 25.8855 7.44772C25.3854 6.94762 24.7072 6.66667 23.9999 6.66667H21.3333M10.6666 6.66667H21.3333M10.6666 6.66667V4M21.3333 6.66667V4" stroke="white" stroke-width="2" stroke-linecap="round" stroke-linejoin="round"/>
</svg>
