<svg width="32" height="32" viewBox="0 0 32 32" fill="none" xmlns="http://www.w3.org/2000/svg">
<g clip-path="url(#clip0_48_196)">
<path d="M10.6666 4V9.33333M15.9999 9.33333V4M21.3333 4V9.33333M10.6666 14.6667H21.3333M10.6666 20H15.9999M7.99992 28H23.9999C24.7072 28 25.3854 27.719 25.8855 27.219C26.3856 26.7189 26.6666 26.0406 26.6666 25.3333V9.33333C26.6666 8.62609 26.3856 7.94781 25.8855 7.44772C25.3854 6.94762 24.7072 6.66667 23.9999 6.66667H7.99992C7.29267 6.66667 6.6144 6.94762 6.1143 7.44772C5.6142 7.94781 5.33325 8.62609 5.33325 9.33333V25.3333C5.33325 26.0406 5.6142 26.7189 6.1143 27.219C6.6144 27.719 7.29267 28 7.99992 28Z" stroke="white" stroke-width="2" stroke-linecap="round" stroke-linejoin="round"/>
</g>
<defs>
<clipPath id="clip0_48_196">
<rect width="32" height="32" fill="white"/>
</clipPath>
</defs>
</svg>
