<svg width="32" height="32" viewBox="0 0 32 32" fill="none" xmlns="http://www.w3.org/2000/svg">
<path d="M14.6667 6.66675H28.0001M14.6667 16.0001H28.0001M14.6667 25.3334H28.0001" stroke="white" stroke-width="2" stroke-linecap="round" stroke-linejoin="round"/>
<path d="M8 4H5.33333C4.59695 4 4 4.59695 4 5.33333V8C4 8.73638 4.59695 9.33333 5.33333 9.33333H8C8.73638 9.33333 9.33333 8.73638 9.33333 8V5.33333C9.33333 4.59695 8.73638 4 8 4Z" fill="white" stroke="white" stroke-width="2" stroke-linecap="round" stroke-linejoin="round"/>
<path d="M8 13.3333H5.33333C4.59695 13.3333 4 13.9302 4 14.6666V17.3333C4 18.0696 4.59695 18.6666 5.33333 18.6666H8C8.73638 18.6666 9.33333 18.0696 9.33333 17.3333V14.6666C9.33333 13.9302 8.73638 13.3333 8 13.3333Z" fill="white" stroke="white" stroke-width="2" stroke-linecap="round" stroke-linejoin="round"/>
<path d="M8 22.6667H5.33333C4.59695 22.6667 4 23.2637 4 24.0001V26.6667C4 27.4031 4.59695 28.0001 5.33333 28.0001H8C8.73638 28.0001 9.33333 27.4031 9.33333 26.6667V24.0001C9.33333 23.2637 8.73638 22.6667 8 22.6667Z" fill="white" stroke="white" stroke-width="2" stroke-linecap="round" stroke-linejoin="round"/>
</svg>
